<?xml version="1.0" encoding="UTF-8" standalone="no"?><!DOCTYPE svg PUBLIC "-//W3C//DTD SVG 1.1//EN" "http://www.w3.org/Graphics/SVG/1.1/DTD/svg11.dtd"><svg width="100%" height="100%" viewBox="0 0 2917 1042" version="1.1" xmlns="http://www.w3.org/2000/svg" xmlns:xlink="http://www.w3.org/1999/xlink" xml:space="preserve" xmlns:serif="http://www.serif.com/" style="fill-rule:evenodd;clip-rule:evenodd;stroke-linejoin:round;stroke-miterlimit:2;"><g id="Layer-1" serif:id="Layer 1"><g id="g4782"><g id="text817"><path d="M1175.69,677.733l14.892,-1.302c0.705,5.968 2.347,10.864 4.924,14.689c2.577,3.825 6.578,6.917 12.003,9.277c5.426,2.36 11.529,3.54 18.311,3.54c6.022,0 11.339,-0.895 15.95,-2.685c4.612,-1.791 8.043,-4.246 10.295,-7.365c2.251,-3.12 3.377,-6.524 3.377,-10.213c0,-3.744 -1.085,-7.013 -3.255,-9.807c-2.17,-2.794 -5.751,-5.14 -10.742,-7.039c-3.201,-1.248 -10.281,-3.187 -21.241,-5.819c-10.959,-2.631 -18.636,-5.113 -23.03,-7.446c-5.697,-2.984 -9.942,-6.687 -12.736,-11.108c-2.794,-4.422 -4.191,-9.373 -4.191,-14.852c-0,-6.022 1.709,-11.651 5.127,-16.887c3.418,-5.235 8.409,-9.209 14.974,-11.922c6.564,-2.713 13.861,-4.069 21.891,-4.069c8.843,0 16.642,1.424 23.397,4.273c6.754,2.848 11.949,7.039 15.584,12.573c3.635,5.534 5.588,11.8 5.859,18.799l-15.136,1.139c-0.814,-7.541 -3.567,-13.238 -8.26,-17.09c-4.693,-3.852 -11.624,-5.778 -20.793,-5.778c-9.549,0 -16.507,1.75 -20.874,5.249c-4.367,3.499 -6.551,7.718 -6.551,12.655c-0,4.286 1.546,7.812 4.639,10.579c3.038,2.767 10.972,5.602 23.803,8.504c12.831,2.903 21.634,5.439 26.408,7.609c6.945,3.201 12.072,7.257 15.381,12.167c3.309,4.91 4.964,10.566 4.964,16.968c0,6.347 -1.817,12.329 -5.452,17.944c-3.635,5.615 -8.857,9.983 -15.666,13.102c-6.809,3.12 -14.472,4.679 -22.99,4.679c-10.796,0 -19.843,-1.573 -27.14,-4.72c-7.297,-3.146 -13.021,-7.88 -17.171,-14.2c-4.151,-6.321 -6.334,-13.469 -6.551,-21.444Z" style="fill:#fff;fill-rule:nonzero;"/><path d="M1325.84,716.063l-0,-50.537l-45.98,-68.766l19.206,-0l23.519,35.97c4.34,6.727 8.382,13.455 12.125,20.182c3.581,-6.239 7.921,-13.265 13.021,-21.078l23.112,-35.074l18.392,-0l-47.607,68.766l-0,50.537l-15.788,-0Z" style="fill:#fff;fill-rule:nonzero;"/><path d="M1398.02,677.733l14.893,-1.302c0.705,5.968 2.346,10.864 4.923,14.689c2.577,3.825 6.579,6.917 12.004,9.277c5.425,2.36 11.529,3.54 18.31,3.54c6.023,0 11.339,-0.895 15.951,-2.685c4.612,-1.791 8.043,-4.246 10.295,-7.365c2.251,-3.12 3.377,-6.524 3.377,-10.213c-0,-3.744 -1.085,-7.013 -3.255,-9.807c-2.171,-2.794 -5.751,-5.14 -10.743,-7.039c-3.201,-1.248 -10.281,-3.187 -21.24,-5.819c-10.959,-2.631 -18.636,-5.113 -23.03,-7.446c-5.697,-2.984 -9.942,-6.687 -12.736,-11.108c-2.794,-4.422 -4.191,-9.373 -4.191,-14.852c-0,-6.022 1.709,-11.651 5.126,-16.887c3.418,-5.235 8.41,-9.209 14.974,-11.922c6.565,-2.713 13.862,-4.069 21.892,-4.069c8.843,0 16.642,1.424 23.397,4.273c6.754,2.848 11.949,7.039 15.584,12.573c3.635,5.534 5.588,11.8 5.859,18.799l-15.137,1.139c-0.813,-7.541 -3.567,-13.238 -8.26,-17.09c-4.693,-3.852 -11.623,-5.778 -20.792,-5.778c-9.549,0 -16.507,1.75 -20.874,5.249c-4.368,3.499 -6.551,7.718 -6.551,12.655c-0,4.286 1.546,7.812 4.638,10.579c3.038,2.767 10.973,5.602 23.804,8.504c12.831,2.903 21.634,5.439 26.408,7.609c6.944,3.201 12.071,7.257 15.381,12.167c3.309,4.91 4.964,10.566 4.964,16.968c-0,6.347 -1.818,12.329 -5.453,17.944c-3.635,5.615 -8.856,9.983 -15.665,13.102c-6.809,3.12 -14.472,4.679 -22.99,4.679c-10.797,0 -19.843,-1.573 -27.14,-4.72c-7.298,-3.146 -13.021,-7.88 -17.172,-14.2c-4.15,-6.321 -6.334,-13.469 -6.551,-21.444Z" style="fill:#fff;fill-rule:nonzero;"/><path d="M1544.91,716.063l-0,-105.225l-39.307,0l-0,-14.078l94.564,-0l-0,14.078l-39.47,0l0,105.225l-15.787,-0Z" style="fill:#fff;fill-rule:nonzero;"/><path d="M1616.69,716.063l-0,-119.303l86.263,-0l-0,14.078l-70.475,0l-0,36.54l65.999,0l-0,13.997l-65.999,0l-0,40.609l73.242,0l-0,14.079l-89.03,-0Z" style="fill:#fff;fill-rule:nonzero;"/><path d="M1727.04,716.063l0,-119.303l23.763,-0l28.239,84.472c2.605,7.867 4.503,13.754 5.697,17.66c1.356,-4.341 3.472,-10.715 6.348,-19.125l28.564,-83.007l21.24,-0l0,119.303l-15.218,-0l0,-99.854l-34.668,99.854l-14.241,-0l-34.506,-101.562l0,101.562l-15.218,-0Z" style="fill:#fff;fill-rule:nonzero;"/><path d="M1860.99,677.733l14.893,-1.302c0.705,5.968 2.346,10.864 4.923,14.689c2.577,3.825 6.579,6.917 12.004,9.277c5.425,2.36 11.529,3.54 18.31,3.54c6.023,0 11.339,-0.895 15.951,-2.685c4.611,-1.791 8.043,-4.246 10.295,-7.365c2.251,-3.12 3.377,-6.524 3.377,-10.213c-0,-3.744 -1.085,-7.013 -3.255,-9.807c-2.171,-2.794 -5.751,-5.14 -10.743,-7.039c-3.201,-1.248 -10.281,-3.187 -21.24,-5.819c-10.959,-2.631 -18.636,-5.113 -23.03,-7.446c-5.697,-2.984 -9.942,-6.687 -12.736,-11.108c-2.794,-4.422 -4.191,-9.373 -4.191,-14.852c-0,-6.022 1.708,-11.651 5.126,-16.887c3.418,-5.235 8.41,-9.209 14.974,-11.922c6.565,-2.713 13.862,-4.069 21.892,-4.069c8.843,0 16.642,1.424 23.396,4.273c6.755,2.848 11.95,7.039 15.585,12.573c3.635,5.534 5.588,11.8 5.859,18.799l-15.137,1.139c-0.813,-7.541 -3.567,-13.238 -8.26,-17.09c-4.693,-3.852 -11.623,-5.778 -20.792,-5.778c-9.549,0 -16.507,1.75 -20.874,5.249c-4.368,3.499 -6.551,7.718 -6.551,12.655c-0,4.286 1.546,7.812 4.638,10.579c3.038,2.767 10.973,5.602 23.804,8.504c12.831,2.903 21.634,5.439 26.408,7.609c6.944,3.201 12.071,7.257 15.381,12.167c3.309,4.91 4.964,10.566 4.964,16.968c-0,6.347 -1.818,12.329 -5.453,17.944c-3.635,5.615 -8.856,9.983 -15.665,13.102c-6.809,3.12 -14.472,4.679 -22.99,4.679c-10.797,0 -19.843,-1.573 -27.14,-4.72c-7.298,-3.146 -13.021,-7.88 -17.172,-14.2c-4.15,-6.321 -6.334,-13.469 -6.551,-21.444Z" style="fill:#fff;fill-rule:nonzero;"/><path d="M2018.46,677.733l14.892,-1.302c0.706,5.968 2.347,10.864 4.924,14.689c2.577,3.825 6.578,6.917 12.004,9.277c5.425,2.36 11.528,3.54 18.31,3.54c6.022,0 11.339,-0.895 15.951,-2.685c4.611,-1.791 8.043,-4.246 10.294,-7.365c2.252,-3.12 3.378,-6.524 3.378,-10.213c-0,-3.744 -1.086,-7.013 -3.256,-9.807c-2.17,-2.794 -5.751,-5.14 -10.742,-7.039c-3.201,-1.248 -10.281,-3.187 -21.24,-5.819c-10.959,-2.631 -18.636,-5.113 -23.031,-7.446c-5.696,-2.984 -9.942,-6.687 -12.736,-11.108c-2.794,-4.422 -4.191,-9.373 -4.191,-14.852c0,-6.022 1.709,-11.651 5.127,-16.887c3.418,-5.235 8.409,-9.209 14.974,-11.922c6.565,-2.713 13.862,-4.069 21.891,-4.069c8.844,0 16.643,1.424 23.397,4.273c6.755,2.848 11.95,7.039 15.585,12.573c3.634,5.534 5.588,11.8 5.859,18.799l-15.137,1.139c-0.814,-7.541 -3.567,-13.238 -8.26,-17.09c-4.693,-3.852 -11.624,-5.778 -20.793,-5.778c-9.548,0 -16.506,1.75 -20.874,5.249c-4.367,3.499 -6.551,7.718 -6.551,12.655c0,4.286 1.547,7.812 4.639,10.579c3.038,2.767 10.973,5.602 23.804,8.504c12.831,2.903 21.633,5.439 26.408,7.609c6.944,3.201 12.071,7.257 15.38,12.167c3.31,4.91 4.965,10.566 4.965,16.968c-0,6.347 -1.818,12.329 -5.453,17.944c-3.635,5.615 -8.857,9.983 -15.666,13.102c-6.808,3.12 -14.472,4.679 -22.989,4.679c-10.797,0 -19.844,-1.573 -27.141,-4.72c-7.297,-3.146 -13.021,-7.88 -17.171,-14.2c-4.15,-6.321 -6.334,-13.469 -6.551,-21.444Z" style="fill:#fff;fill-rule:nonzero;"/><path d="M2130.2,657.958c-0,-19.803 5.317,-35.306 15.95,-46.509c10.634,-11.204 24.36,-16.805 41.179,-16.805c11.013,-0 20.942,2.631 29.785,7.894c8.843,5.262 15.584,12.6 20.223,22.013c4.639,9.413 6.958,20.087 6.958,32.023c-0,12.099 -2.441,22.922 -7.324,32.471c-4.883,9.548 -11.8,16.778 -20.752,21.688c-8.952,4.91 -18.609,7.364 -28.972,7.364c-11.23,0 -21.267,-2.712 -30.11,-8.138c-8.844,-5.425 -15.544,-12.83 -20.101,-22.216c-4.557,-9.386 -6.836,-19.315 -6.836,-29.785Zm16.276,0.244c-0,14.377 3.866,25.702 11.597,33.976c7.731,8.274 17.429,12.41 29.093,12.41c11.882,0 21.661,-4.177 29.338,-12.532c7.677,-8.355 11.515,-20.21 11.515,-35.563c-0,-9.712 -1.641,-18.189 -4.924,-25.432c-3.282,-7.242 -8.083,-12.858 -14.404,-16.845c-6.32,-3.988 -13.414,-5.982 -21.281,-5.982c-11.176,0 -20.792,3.839 -28.849,11.516c-8.057,7.676 -12.085,20.494 -12.085,38.452Z" style="fill:#fff;fill-rule:nonzero;"/><path d="M2349.76,674.234l15.787,3.987c-3.309,12.967 -9.263,22.854 -17.862,29.663c-8.6,6.809 -19.111,10.213 -31.535,10.213c-12.858,0 -23.316,-2.617 -31.372,-7.853c-8.057,-5.235 -14.188,-12.817 -18.392,-22.745c-4.205,-9.929 -6.307,-20.59 -6.307,-31.983c-0,-12.424 2.373,-23.261 7.121,-32.511c4.747,-9.25 11.501,-16.276 20.263,-21.078c8.762,-4.801 18.406,-7.202 28.931,-7.202c11.936,0 21.972,3.038 30.111,9.115c8.138,6.076 13.807,14.621 17.008,25.634l-15.544,3.663c-2.767,-8.681 -6.781,-15.002 -12.044,-18.962c-5.263,-3.961 -11.881,-5.941 -19.857,-5.941c-9.169,0 -16.832,2.197 -22.99,6.592c-6.157,4.395 -10.484,10.295 -12.98,17.7c-2.495,7.406 -3.743,15.042 -3.743,22.909c-0,10.145 1.478,19.002 4.435,26.57c2.957,7.569 7.555,13.225 13.794,16.968c6.239,3.744 12.994,5.615 20.264,5.615c8.843,0 16.33,-2.55 22.461,-7.649c6.13,-5.1 10.281,-12.669 12.451,-22.705Z" style="fill:#fff;fill-rule:nonzero;"/><rect x="2387.68" y="596.76" width="15.788" height="119.303" style="fill:#fff;fill-rule:nonzero;"/><path d="M2431.63,716.063l0,-119.303l86.263,-0l0,14.078l-70.475,0l-0,36.54l65.999,0l0,13.997l-65.999,0l-0,40.609l73.242,0l0,14.079l-89.03,-0Z" style="fill:#fff;fill-rule:nonzero;"/><path d="M2572.82,716.063l-0,-105.225l-39.307,0l0,-14.078l94.564,-0l0,14.078l-39.469,0l-0,105.225l-15.788,-0Z" style="fill:#fff;fill-rule:nonzero;"/><path d="M2677.89,716.063l-0,-50.537l-45.98,-68.766l19.206,-0l23.518,35.97c4.341,6.727 8.383,13.455 12.126,20.182c3.581,-6.239 7.921,-13.265 13.021,-21.078l23.112,-35.074l18.392,-0l-47.608,68.766l0,50.537l-15.787,-0Z" style="fill:#fff;fill-rule:nonzero;"/></g><g id="text817-1"><path d="M1175.67,481.103l16.064,0l20.964,30.802l-0,-30.802l16.216,0l0,55.675l-16.216,0l-20.85,-30.569l0,30.569l-16.178,0l-0,-55.675Z" style="fill:#fff;fill-rule:nonzero;"/><path d="M1236.43,481.103l52.295,0l-0,13.748l-17.546,0l0,41.927l-17.204,0l0,-41.927l-17.545,0l-0,-13.748Z" style="fill:#fff;fill-rule:nonzero;"/><path d="M1332.74,481.103l17.165,0l0,33.171c0,3.289 -0.512,6.394 -1.538,9.317c-1.025,2.922 -2.633,5.477 -4.823,7.666c-2.19,2.189 -4.488,3.726 -6.893,4.611c-3.342,1.24 -7.355,1.86 -12.039,1.86c-2.709,-0 -5.665,-0.19 -8.867,-0.57c-3.203,-0.379 -5.881,-1.132 -8.033,-2.258c-2.152,-1.126 -4.12,-2.726 -5.905,-4.801c-1.785,-2.074 -3.007,-4.212 -3.665,-6.413c-1.063,-3.543 -1.595,-6.68 -1.595,-9.412l0,-33.171l17.166,0l-0,33.96c-0,3.036 0.842,5.408 2.525,7.115c1.684,1.708 4.02,2.561 7.007,2.561c2.962,0 5.285,-0.841 6.969,-2.523c1.684,-1.682 2.526,-4.066 2.526,-7.153l-0,-33.96Z" style="fill:#fff;fill-rule:nonzero;"/></g><g id="g1854"><circle id="path829-82" cx="1327.29" cy="266.633" r="50.633" style="fill:#fff;"/><circle id="path829" cx="236.713" cy="501.03" r="62.629" style="fill:#fff;"/><circle id="path829-5" cx="795.834" cy="233.935" r="44.516" style="fill:#fff;"/><circle id="path829-8" cx="493.125" cy="244.618" r="51.639" style="fill:#fff;"/><circle id="path829-55" cx="913.357" cy="479.662" r="76.704" style="fill:#fff;"/><circle id="path829-0" cx="621.332" cy="789.926" r="62.322" style="fill:#fff;"/><circle id="path829-7" cx="1075.39" cy="794.835" r="28.49" style="fill:#fff;"/><path id="rect882" d="M217.816,492.77c103.525,-86.307 198.436,-181.107 282.524,-286.576c9.62,-12.067 45.606,23.644 32.969,32.502c-112.76,79.037 -203.48,177.627 -282.524,286.576c-9.062,12.492 -44.822,-22.62 -32.969,-32.502Z" style="fill:#fff;fill-rule:nonzero;"/><path id="rect882-3" d="M813.712,213.384c34.855,96.949 78.173,188.771 132.126,274.15c6.172,9.769 -29.353,31.144 -32.392,19.625c-27.112,-102.79 -74.3,-192.054 -132.125,-274.151c-6.63,-9.413 28.4,-30.725 32.391,-19.624Z" style="fill:#fff;fill-rule:nonzero;"/><path id="rect882-0" d="M524.577,229.959c83.014,8.385 166.321,10.338 249.998,4.185c9.573,-0.708 8.239,26.308 -1.124,24.669c-83.542,-14.629 -166.835,-13.564 -249.998,-4.185c-9.535,1.074 -8.381,-25.63 1.124,-24.669l-0,-0Z" style="fill:#fff;fill-rule:nonzero;"/><path id="rect882-7" d="M936.693,437.595c131.357,-52.724 256.578,-116.066 374.09,-192.751c13.445,-8.773 39.004,35.811 23.483,40.64c-138.495,43.097 -260.627,111.279 -374.091,192.751c-13.008,9.341 -38.522,-34.603 -23.482,-40.64Z" style="fill:#fff;fill-rule:nonzero;"/><path id="rect882-77" d="M1051.45,792.962c-39.567,-101.09 -87.382,-197.583 -145.562,-288.301c-6.656,-10.379 27.975,-29.525 31.569,-17.594c32.075,106.465 83.653,200.639 145.563,288.301c7.098,10.051 -27.039,29.169 -31.57,17.594Z" style="fill:#fff;fill-rule:nonzero;"/><path id="rect882-7-6" d="M620.211,767.643c104.132,-95.869 198.762,-199.492 281.454,-312.857c9.461,-12.97 49.166,19.656 36.365,29.674c-114.219,89.399 -204.245,196.452 -281.453,312.859c-8.852,13.346 -48.288,-18.699 -36.366,-29.676Z" style="fill:#fff;fill-rule:nonzero;"/></g></g></g></svg>